#N canvas -10 0 1918 974 12;
#X obj 30 16 osc~ 100;
#X obj 128 16 osc~ 200;
#X obj 218 17 osc~ 300;
#X obj 303 15 osc~ 400;
#X obj 381 14 osc~ 500;
#X obj 473 14 osc~ 600;
#X obj 587 18 osc~ 700;
#X obj 690 19 osc~ 800;
#X obj 29 63 *~ 1;
#X obj 128 64 *~ 0.9;
#X obj 218 62 *~ 0.8;
#X obj 304 58 *~ 0.7;
#X obj 381 57 *~ 0.6;
#X obj 473 60 *~ 0.5;
#X obj 588 59 *~ 0.4;
#X obj 690 56 *~ 0.3;
#X obj 29 127 +~;
#X obj 128 123 +~;
#X obj 218 127 +~;
#X obj 304 127 +~;
#X obj 388 127 +~;
#X obj 476 128 +~;
#X obj 590 127 +~;
#X obj 694 123 +~;
#X obj 30 256 grapher~;
#X msg 814 85 \; pd dsp 1 \;;
#X msg 813 134 \; pd dsp 0 \;;
#X obj 29 167 /~ 5.2;
#X obj 132 210 dac~;
#X connect 0 0 8 0;
#X connect 1 0 9 0;
#X connect 2 0 10 0;
#X connect 3 0 11 0;
#X connect 4 0 12 0;
#X connect 5 0 13 0;
#X connect 6 0 14 0;
#X connect 7 0 15 0;
#X connect 8 0 16 0;
#X connect 9 0 17 0;
#X connect 10 0 18 0;
#X connect 11 0 19 0;
#X connect 12 0 20 0;
#X connect 13 0 21 0;
#X connect 14 0 22 0;
#X connect 15 0 23 0;
#X connect 16 0 27 0;
#X connect 17 0 16 1;
#X connect 18 0 17 1;
#X connect 19 0 18 1;
#X connect 20 0 19 1;
#X connect 21 0 20 1;
#X connect 22 0 21 1;
#X connect 23 0 22 1;
#X connect 27 0 24 0;
#X connect 27 0 28 0;
#X connect 27 0 28 1;
