#N canvas -10 0 1290 1484 12;
#X obj 207 111 udpreceive 13000;
#X obj 207 141 unpackOSC;
#X floatatom 207 259 5 0 0 0 - - -;
#X obj 207 178 routeOSC /processing/punto;
#X floatatom 281 259 5 0 0 0 - - -;
#X obj 209 217 routeOSC /y /x;
#X connect 0 0 1 0;
#X connect 1 0 3 0;
#X connect 3 0 5 0;
#X connect 5 0 2 0;
#X connect 5 1 4 0;
