#N canvas -10 0 1290 1484 12;
#X obj 207 111 udpreceive 13000;
#X obj 207 141 unpackOSC;
#X obj 207 178 routeOSC /processing/punto;
#X obj 229 208 routeOSC /y /x;
#X obj 215 574 bng 15 250 50 0 empty empty empty 17 7 0 10 -262144
-1 -1;
#X obj 242 573 bng 15 250 50 0 empty empty empty 17 7 0 10 -262144
-1 -1;
#X msg 215 614 60;
#X msg 256 614 61;
#X obj 216 662 mtof;
#X msg 295 614 62;
#X msg 334 614 63;
#X msg 378 615 64;
#X msg 419 615 65;
#X msg 458 615 66;
#X msg 497 615 67;
#X obj 279 575 bng 15 250 50 0 empty empty empty 17 7 0 10 -262144
-1 -1;
#X obj 322 575 bng 15 250 50 0 empty empty empty 17 7 0 10 -262144
-1 -1;
#X obj 355 576 bng 15 250 50 0 empty empty empty 17 7 0 10 -262144
-1 -1;
#X obj 391 577 bng 15 250 50 0 empty empty empty 17 7 0 10 -262144
-1 -1;
#X obj 421 576 bng 15 250 50 0 empty empty empty 17 7 0 10 -262144
-1 -1;
#X obj 457 577 bng 15 250 50 0 empty empty empty 17 7 0 10 -262144
-1 -1;
#X obj 217 424 f;
#X obj 267 425 + 1;
#X obj 218 386 metro 200;
#X floatatom 217 458 5 0 0 0 - - -;
#X obj 140 350 tgl 15 0 empty empty empty 17 7 0 10 -262144 -1 -1 1
1;
#X obj 217 488 mod 8;
#X obj 216 527 select 0 1 2 3 4 5 6 7;
#X obj 216 702 osc~;
#X obj 215 765 dac~;
#X obj 328 692 hsl 128 15 0 1 0 0 empty empty empty -2 -8 0 10 -262144
-1 -1 0 1;
#X obj 215 734 *~;
#X obj 204 340 bng 15 250 50 0 empty empty empty 17 7 0 10 -262144
-1 -1;
#X obj 233 241 *;
#X obj 269 240 *;
#X obj 249 274 +;
#X obj 248 310 sqrt;
#X floatatom 248 334 5 0 0 0 - - -;
#X connect 0 0 1 0;
#X connect 1 0 2 0;
#X connect 2 0 3 0;
#X connect 3 0 33 0;
#X connect 3 0 33 1;
#X connect 3 1 34 0;
#X connect 3 1 34 1;
#X connect 4 0 6 0;
#X connect 5 0 7 0;
#X connect 6 0 8 0;
#X connect 7 0 8 0;
#X connect 8 0 28 0;
#X connect 9 0 8 0;
#X connect 10 0 8 0;
#X connect 11 0 8 0;
#X connect 12 0 8 0;
#X connect 13 0 8 0;
#X connect 14 0 8 0;
#X connect 15 0 9 0;
#X connect 16 0 10 0;
#X connect 17 0 11 0;
#X connect 18 0 12 0;
#X connect 19 0 13 0;
#X connect 20 0 14 0;
#X connect 21 0 22 0;
#X connect 21 0 24 0;
#X connect 22 0 21 1;
#X connect 23 0 21 0;
#X connect 24 0 26 0;
#X connect 25 0 23 0;
#X connect 26 0 27 0;
#X connect 27 0 4 0;
#X connect 27 1 5 0;
#X connect 27 2 15 0;
#X connect 27 3 16 0;
#X connect 27 4 17 0;
#X connect 27 5 18 0;
#X connect 27 6 19 0;
#X connect 27 7 20 0;
#X connect 28 0 31 0;
#X connect 30 0 31 1;
#X connect 31 0 29 0;
#X connect 32 0 23 0;
#X connect 33 0 35 0;
#X connect 34 0 35 1;
#X connect 35 0 36 0;
#X connect 36 0 37 0;
#X connect 37 0 23 1;
