#N canvas -6 0 1694 1102 12;
#X obj 56 32 inlet trig;
#X obj 56 87 sel 0;
#X msg 55 126 stop;
#X obj 160 33 inlet;
#X obj 133 103 t b;
#X obj 234 33 inlet;
#X obj 336 32 inlet;
#X obj 404 29 inlet;
#X obj 468 34 inlet;
#X obj 136 174 f \$1;
#X obj 174 278 pack 0 \$2;
#X obj 271 125 del \$2;
#X text 54 4 Trigger;
#X text 159 0 Attack Level;
#X text 230 0 Attack Speed;
#X text 332 -3 Decay Speed;
#X text 398 8 Sustain;
#X text 469 -1 Release Speed;
#X obj 271 160 f \$4;
#X obj 272 191 * 0.01;
#X obj 272 277 pack 0 \$3;
#X obj 272 243 * \$1;
#X obj 388 277 pack 0 \$5;
#X obj 283 339 line~;
#X obj 283 368 outlet~;
#X connect 0 0 1 0;
#X connect 1 0 2 0;
#X connect 1 0 22 0;
#X connect 1 1 4 0;
#X connect 2 0 11 0;
#X connect 3 0 9 1;
#X connect 3 0 21 1;
#X connect 4 0 9 0;
#X connect 4 0 11 0;
#X connect 5 0 10 1;
#X connect 5 0 11 1;
#X connect 6 0 20 1;
#X connect 7 0 18 0;
#X connect 8 0 22 1;
#X connect 9 0 10 0;
#X connect 10 0 23 0;
#X connect 11 0 18 0;
#X connect 18 0 19 0;
#X connect 19 0 21 0;
#X connect 20 0 23 0;
#X connect 21 0 20 0;
#X connect 22 0 23 0;
#X connect 23 0 24 0;
