#N canvas -10 0 1918 974 12;
#X obj 40 366 *~ 1;
#X obj 40 430 +~;
#X obj 114 424 +~;
#X obj 193 427 +~;
#X obj 279 427 +~;
#X obj 363 427 +~;
#X obj 443 427 +~;
#X obj 531 426 +~;
#X obj 614 420 +~;
#X obj 705 191 grapher~;
#X msg 615 509 \; pd dsp 1 \;;
#X msg 614 558 \; pd dsp 0 \;;
#X msg 347 538 1;
#X msg 450 540 0;
#X obj 346 476 trigger b b;
#X obj 309 462 bng 15 250 50 0 empty empty empty 17 7 0 10 -262144
-1 -1;
#X obj 404 584 adsr~ 1 100 1000 50 1000;
#X obj 38 23 mtof;
#X floatatom 41 54 5 0 0 0 - - -;
#X floatatom 39 1 5 0 0 0 - - -;
#X obj 111 97 * 2;
#X floatatom 112 120 5 0 0 0 - - -;
#X obj 111 142 osc~;
#X obj 190 142 osc~;
#X obj 275 140 osc~;
#X obj 353 139 osc~;
#X obj 437 138 osc~;
#X obj 525 142 osc~;
#X obj 607 141 osc~;
#X obj 38 144 osc~;
#X floatatom 187 117 5 0 0 0 - - -;
#X floatatom 274 116 5 0 0 0 - - -;
#X floatatom 352 116 5 0 0 0 - - -;
#X floatatom 436 113 5 0 0 0 - - -;
#X floatatom 524 115 5 0 0 0 - - -;
#X floatatom 608 114 5 0 0 0 - - -;
#X obj 186 94 * 3;
#X obj 273 93 * 4;
#X obj 351 93 * 5;
#X obj 435 90 * 6;
#X obj 523 92 * 7;
#X obj 607 91 * 8;
#X obj 76 109 vsl 15 128 0 1 0 0 empty empty empty 0 -9 0 10 -262144
-1 -1 11700 1;
#X obj 152 101 vsl 15 128 0 1 0 0 empty empty empty 0 -9 0 10 -262144
-1 -1 0 1;
#X obj 230 102 vsl 15 128 0 1 0 0 empty empty empty 0 -9 0 10 -262144
-1 -1 0 1;
#X obj 316 99 vsl 15 128 0 1 0 0 empty empty empty 0 -9 0 10 -262144
-1 -1 0 1;
#X obj 393 96 vsl 15 128 0 1 0 0 empty empty empty 0 -9 0 10 -262144
-1 -1 0 1;
#X obj 478 97 vsl 15 128 0 1 0 0 empty empty empty 0 -9 0 10 -262144
-1 -1 0 1;
#X obj 563 97 vsl 15 128 0 1 0 0 empty empty empty 0 -9 0 10 -262144
-1 -1 0 1;
#X obj 656 100 vsl 15 128 0 1 0 0 empty empty empty 0 -9 0 10 -262144
-1 -1 0 1;
#X floatatom 69 253 5 0 0 0 - - -;
#X floatatom 152 246 5 0 0 0 - - -;
#X floatatom 232 249 5 0 0 0 - - -;
#X floatatom 317 243 5 0 0 0 - - -;
#X floatatom 394 241 5 0 0 0 - - -;
#X floatatom 478 243 5 0 0 0 - - -;
#X floatatom 563 246 5 0 0 0 - - -;
#X floatatom 652 243 5 0 0 0 - - -;
#X obj 69 281 t f f;
#X obj 77 340 +;
#X floatatom 70 402 5 0 0 0 - - -;
#X obj 153 278 t f f;
#X obj 233 276 t f f;
#X obj 315 275 t f f;
#X obj 394 272 t f f;
#X obj 478 274 t f f;
#X obj 563 275 t f f;
#X obj 653 273 t f f;
#X obj 114 365 *~;
#X obj 193 362 *~;
#X obj 279 358 *~;
#X obj 356 357 *~;
#X obj 440 359 *~;
#X obj 529 358 *~;
#X obj 610 353 *~;
#X obj 153 308 +;
#X obj 234 309 +;
#X obj 315 307 +;
#X obj 395 305 +;
#X obj 478 304 +;
#X obj 564 305 +;
#X obj 654 301 + 0;
#X obj 151 341 t b f;
#X obj 233 340 t b f;
#X obj 315 335 t b f;
#X obj 393 331 t b f;
#X obj 477 331 t b f;
#X obj 561 332 t b f;
#X obj 655 330 t b f;
#X obj 40 470 /~;
#X obj 40 584 dac~;
#X obj 39 554 *~;
#X obj 121 477 hsl 128 15 0 1 0 0 empty empty empty -2 -8 0 10 -262144
-1 -1 0 1;
#X obj 451 504 delay 1500;
#N canvas 0 50 450 250 (subpatch) 0;
#X array espectro 64 float 3;
#A 0 3816 0.252744 2.00853 0.199562 0.0816783 0.0480088 0.0328843 0.0245926
0.0194884 0.0160901 0.0136971 0.0119372 0.0106061 0.00956507 0.0087359
0.00806388 0.00751226 0.00705174 0.00666596 0.00633993 0.00606327 0.00582657
0.00562518 0.00545353 0.0053078 0.00518537 0.00508263 0.00499865 0.00493189
0.00488131 0.00484521 0.00482387 0.00481685 0.00482387 0.00484521 0.00488131
0.00493189 0.00499865 0.00508263 0.00518537 0.0053078 0.00545353 0.00562518
0.00582657 0.00606327 0.00633993 0.00666596 0.00705174 0.00751226 0.00806388
0.0087359 0.00956507 0.0106061 0.0119372 0.0136971 0.0160901 0.0194884
0.0245926 0.0328843 0.0480088 0.0816783 0.199562 2.00853 0.252744;
#X coords 0 1 64 -1 200 140 1 0 0;
#X restore 704 33 graph;
#X obj 151 561 *~;
#X obj 193 561 *~;
#X obj 158 596 +~;
#X obj 158 623 sqrt~;
#X obj 294 612 tabwrite~ espectro;
#X obj 252 522 tgl 15 0 empty empty empty 17 7 0 10 -262144 -1 -1 1
1;
#X obj 250 555 metro 500;
#X obj 238 607 /~ 16;
#X obj 162 513 fft~;
#X floatatom 213 493 5 0 0 0 - - -;
#X connect 0 0 1 0;
#X connect 1 0 89 0;
#X connect 2 0 1 1;
#X connect 3 0 2 1;
#X connect 4 0 3 1;
#X connect 5 0 4 1;
#X connect 6 0 5 1;
#X connect 7 0 6 1;
#X connect 8 0 7 1;
#X connect 12 0 16 0;
#X connect 13 0 16 0;
#X connect 14 0 12 0;
#X connect 14 1 93 0;
#X connect 15 0 14 0;
#X connect 17 0 18 0;
#X connect 18 0 20 0;
#X connect 18 0 29 0;
#X connect 18 0 36 0;
#X connect 18 0 37 0;
#X connect 18 0 38 0;
#X connect 18 0 39 0;
#X connect 18 0 40 0;
#X connect 18 0 41 0;
#X connect 19 0 17 0;
#X connect 20 0 21 0;
#X connect 21 0 22 0;
#X connect 22 0 68 0;
#X connect 23 0 69 0;
#X connect 24 0 70 0;
#X connect 25 0 71 0;
#X connect 26 0 72 0;
#X connect 27 0 73 0;
#X connect 28 0 74 0;
#X connect 29 0 0 0;
#X connect 30 0 23 0;
#X connect 31 0 24 0;
#X connect 32 0 25 0;
#X connect 33 0 26 0;
#X connect 34 0 27 0;
#X connect 35 0 28 0;
#X connect 36 0 30 0;
#X connect 37 0 31 0;
#X connect 38 0 32 0;
#X connect 39 0 33 0;
#X connect 40 0 34 0;
#X connect 41 0 35 0;
#X connect 42 0 50 0;
#X connect 43 0 51 0;
#X connect 44 0 52 0;
#X connect 45 0 53 0;
#X connect 46 0 54 0;
#X connect 47 0 55 0;
#X connect 48 0 56 0;
#X connect 49 0 57 0;
#X connect 50 0 58 0;
#X connect 51 0 61 0;
#X connect 52 0 62 0;
#X connect 53 0 63 0;
#X connect 54 0 64 0;
#X connect 55 0 65 0;
#X connect 56 0 66 0;
#X connect 57 0 67 0;
#X connect 58 0 59 0;
#X connect 58 1 0 1;
#X connect 59 0 60 0;
#X connect 60 0 89 1;
#X connect 61 0 75 0;
#X connect 61 1 68 1;
#X connect 62 0 76 0;
#X connect 62 1 69 1;
#X connect 63 0 77 0;
#X connect 63 1 70 1;
#X connect 64 0 78 0;
#X connect 64 1 71 1;
#X connect 65 0 79 0;
#X connect 65 1 72 1;
#X connect 66 0 80 0;
#X connect 66 1 73 1;
#X connect 67 0 81 0;
#X connect 67 1 74 1;
#X connect 68 0 2 0;
#X connect 69 0 3 0;
#X connect 70 0 4 0;
#X connect 71 0 5 0;
#X connect 72 0 6 0;
#X connect 73 0 7 0;
#X connect 74 0 8 0;
#X connect 75 0 82 0;
#X connect 76 0 83 0;
#X connect 77 0 84 0;
#X connect 78 0 85 0;
#X connect 79 0 86 0;
#X connect 80 0 87 0;
#X connect 81 0 88 0;
#X connect 82 0 59 0;
#X connect 82 1 59 1;
#X connect 83 0 75 0;
#X connect 83 1 75 1;
#X connect 84 0 76 0;
#X connect 84 1 76 1;
#X connect 85 0 77 0;
#X connect 85 1 77 1;
#X connect 86 0 78 0;
#X connect 86 1 78 1;
#X connect 87 0 79 0;
#X connect 87 1 79 1;
#X connect 88 0 80 0;
#X connect 88 1 80 1;
#X connect 89 0 91 0;
#X connect 89 0 9 0;
#X connect 89 0 103 0;
#X connect 91 0 90 0;
#X connect 91 0 90 1;
#X connect 92 0 91 1;
#X connect 93 0 13 0;
#X connect 95 0 97 0;
#X connect 96 0 97 1;
#X connect 97 0 98 0;
#X connect 98 0 102 0;
#X connect 100 0 101 0;
#X connect 101 0 99 0;
#X connect 102 0 99 0;
#X connect 103 0 95 0;
#X connect 103 0 95 1;
#X connect 103 1 96 0;
#X connect 103 1 96 1;
#X connect 104 0 103 1;
#X coords 0 0 0.5 0.5 0 0 0;
