#N canvas -10 0 1918 974 12;
#X obj 75 84 spigot;
#X floatatom 73 40 5 0 0 0 - - -;
#X floatatom 77 123 5 0 0 0 - - -;
#X msg 134 51 0;
#X msg 193 53 1;
#X obj 296 76 pipe 1000;
#X floatatom 296 44 5 0 0 0 - - -;
#X floatatom 296 110 5 0 0 0 - - -;
#X obj 409 76 delay 500;
#X obj 410 37 bng 15 250 50 0 empty empty empty 17 7 0 10 -262144 -1
-1;
#X obj 408 117 bng 15 250 50 0 empty empty empty 17 7 0 10 -262144
-1 -1;
#X floatatom 476 29 5 0 0 0 - - -;
#X obj 517 79 del;
#X floatatom 630 110 5 0 0 0 - - -;
#X floatatom 765 113 5 0 0 0 - - -;
#X msg 630 4 3;
#X floatatom 694 11 5 0 0 0 - - -;
#X obj 629 65 pipe float float 5000;
#X msg 362 18 stop;
#X obj 123 217 metro 500;
#X obj 123 255 bng 15 250 50 0 empty empty empty 17 7 0 10 -262144
-1 -1;
#X obj 124 169 tgl 15 0 empty empty empty 17 7 0 10 -262144 -1 -1 0
1;
#X floatatom 125 355 5 0 0 0 - - -;
#X obj 125 384 osc~;
#X obj 292 267 delay 500;
#X floatatom 291 370 5 0 0 0 - - -;
#X obj 291 397 osc~;
#X obj 219 216 random 1000;
#X obj 290 337 + 500;
#X obj 124 323 + 500;
#X obj 184 446 *~;
#X obj 249 449 hsl 128 15 0 1 0 0 empty empty empty -2 -8 0 10 -262144
-1 -1 0 1;
#X obj 189 515 dac~;
#X obj 291 303 random 1000;
#X obj 124 292 random 1000;
#X connect 0 0 2 0;
#X connect 1 0 0 0;
#X connect 3 0 0 1;
#X connect 4 0 0 1;
#X connect 5 0 7 0;
#X connect 6 0 5 0;
#X connect 8 0 10 0;
#X connect 9 0 8 0;
#X connect 11 0 8 1;
#X connect 15 0 17 0;
#X connect 16 0 17 1;
#X connect 17 0 13 0;
#X connect 17 1 14 0;
#X connect 18 0 8 0;
#X connect 19 0 20 0;
#X connect 19 0 27 0;
#X connect 20 0 24 0;
#X connect 20 0 34 0;
#X connect 21 0 19 0;
#X connect 22 0 23 0;
#X connect 23 0 30 0;
#X connect 24 0 33 0;
#X connect 25 0 26 0;
#X connect 26 0 30 0;
#X connect 27 0 19 1;
#X connect 28 0 25 0;
#X connect 29 0 22 0;
#X connect 30 0 32 0;
#X connect 30 0 32 1;
#X connect 31 0 30 1;
#X connect 33 0 28 0;
#X connect 34 0 29 0;
