#N canvas -10 0 1918 974 12;
#X obj 205 78 hsl 128 15 0 2000 0 0 empty empty empty -2 -8 0 10 -262144
-1 -1 11900 1;
#X obj 200 151 osc~;
#X floatatom 200 110 5 0 0 0 - - -;
#X obj 471 85 grapher~;
#X obj 473 260 grapher~;
#X obj 199 201 lop~ 500;
#X text 205 41 0 - 1000;
#X text 312 15 Filtro Pasabajas;
#X text 274 189 Frecuencia de corte 500Hz;
#X text 299 206 Cutoff Frequency;
#X obj 207 514 hsl 128 15 0 2000 0 0 empty empty empty -2 -8 0 10 -262144
-1 -1 2300 1;
#X obj 203 587 osc~;
#X floatatom 203 546 5 0 0 0 - - -;
#X obj 474 521 grapher~;
#X obj 476 696 grapher~;
#X text 208 477 0 - 1000;
#X text 277 625 Frecuencia de corte 500Hz;
#X text 302 642 Cutoff Frequency;
#X text 315 451 Filtro Pasa altas;
#X obj 202 637 hip~ 500;
#X text -14 1406 fin;
#X obj 206 959 hsl 128 15 0 2000 0 0 empty empty empty -2 -8 0 10 -262144
-1 -1 6600 1;
#X obj 202 1032 osc~;
#X floatatom 202 991 5 0 0 0 - - -;
#X obj 473 966 grapher~;
#X obj 475 1141 grapher~;
#X text 207 922 0 - 1000;
#X text 301 1087 Cutoff Frequency;
#X text 314 896 Filtro Pasa banda;
#X obj 200 1082 bp~ 500 5;
#X obj 203 279 *~;
#X obj 267 258 hsl 128 15 0 1 0 0 empty empty empty -2 -8 0 10 -262144
-1 -1 0 1;
#X obj 204 324 dac~;
#X obj 203 721 *~;
#X obj 267 700 hsl 128 15 0 1 0 0 empty empty empty -2 -8 0 10 -262144
-1 -1 0 1;
#X obj 204 766 dac~;
#X text 276 1070 Frecuencia central 500Hz;
#X obj 204 1135 *~;
#X obj 268 1114 hsl 128 15 0 1 0 0 empty empty empty -2 -8 0 10 -262144
-1 -1 0 1;
#X obj 205 1180 dac~;
#X connect 0 0 2 0;
#X connect 1 0 3 0;
#X connect 1 0 5 0;
#X connect 2 0 1 0;
#X connect 5 0 4 0;
#X connect 5 0 30 0;
#X connect 10 0 12 0;
#X connect 11 0 13 0;
#X connect 11 0 19 0;
#X connect 12 0 11 0;
#X connect 19 0 14 0;
#X connect 19 0 33 0;
#X connect 21 0 23 0;
#X connect 22 0 24 0;
#X connect 22 0 29 0;
#X connect 23 0 22 0;
#X connect 29 0 25 0;
#X connect 29 0 37 0;
#X connect 30 0 32 0;
#X connect 30 0 32 1;
#X connect 31 0 30 1;
#X connect 33 0 35 0;
#X connect 33 0 35 1;
#X connect 34 0 33 1;
#X connect 37 0 39 0;
#X connect 37 0 39 1;
#X connect 38 0 37 1;
