#N canvas -10 0 1918 974 12;
#X text 3 -1 Funciones matemáticas;
#X floatatom 22 64 5 0 0 0 - - -;
#X floatatom 71 64 5 0 0 0 - - -;
#X text 26 36 Suma;
#X text 155 39 Resta;
#X text 251 37 Multiplicación;
#X text 411 39 División;
#X obj 22 105 +;
#X floatatom 21 148 5 0 0 0 - - -;
#X floatatom 142 66 5 0 0 0 - - -;
#X floatatom 191 66 5 0 0 0 - - -;
#X floatatom 141 150 5 0 0 0 - - -;
#X text 621 14 Crtl+d duplicar;
#X obj 142 107 -;
#X floatatom 257 66 5 0 0 0 - - -;
#X floatatom 306 66 5 0 0 0 - - -;
#X floatatom 256 150 5 0 0 0 - - -;
#X obj 257 107 *;
#X floatatom 408 65 5 0 0 0 - - -;
#X floatatom 457 65 5 0 0 0 - - -;
#X floatatom 407 149 5 0 0 0 - - -;
#X obj 408 106 /;
#X msg 116 197 7;
#X obj 85 250 + 1;
#X obj 161 251 * 10;
#X floatatom 86 296 5 0 0 0 - - -;
#X floatatom 162 295 5 0 0 0 - - -;
#X msg 203 392 1;
#X obj 204 436 + 1;
#X floatatom 204 476 5 0 0 0 - - -;
#X obj 65 435 + 1;
#X floatatom 65 475 5 0 0 0 - - -;
#X floatatom 132 477 5 0 0 0 - - -;
#X obj 132 435 * 9;
#X msg 64 391 5;
#X obj 107 346 bng 15 250 50 0 empty empty empty 17 7 0 10 -262144
-1 -1;
#X text -17 2640 comment;
#X msg 131 391 2;
#X obj 65 551 +;
#X floatatom 64 591 5 0 0 0 - - -;
#X msg 437 392 1;
#X obj 438 436 + 1;
#X floatatom 438 476 5 0 0 0 - - -;
#X obj 299 435 + 1;
#X floatatom 299 475 5 0 0 0 - - -;
#X floatatom 366 477 5 0 0 0 - - -;
#X obj 366 435 * 9;
#X msg 298 391 5;
#X obj 341 346 bng 15 250 50 0 empty empty empty 17 7 0 10 -262144
-1 -1;
#X msg 365 391 2;
#X obj 299 559 +;
#X floatatom 298 591 5 0 0 0 - - -;
#X obj 365 519 +;
#X floatatom 363 564 5 0 0 0 - - -;
#X obj 583 328 bng 15 250 50 0 empty empty empty 17 7 0 10 -262144
-1 -1;
#X msg 719 428 1;
#X obj 720 472 + 1;
#X floatatom 720 512 5 0 0 0 - - -;
#X obj 581 471 + 1;
#X floatatom 581 511 5 0 0 0 - - -;
#X floatatom 648 513 5 0 0 0 - - -;
#X obj 648 471 * 9;
#X msg 580 427 5;
#X msg 647 427 2;
#X obj 581 595 +;
#X floatatom 580 627 5 0 0 0 - - -;
#X obj 647 555 +;
#X floatatom 645 600 5 0 0 0 - - -;
#X obj 583 368 trigger bang bang bang;
#X obj 68 645 bng 15 250 50 0 empty empty empty 17 7 0 10 -262144 -1
-1;
#X obj 68 686 trigger bang bang;
#X obj 71 784 + 1;
#X floatatom 71 824 5 0 0 0 - - -;
#X floatatom 138 826 5 0 0 0 - - -;
#X obj 138 784 * 9;
#X msg 70 740 5;
#X msg 137 740 2;
#X obj 71 869 +;
#X floatatom 70 909 5 0 0 0 - - -;
#X obj 145 860 print;
#X obj 300 639 bng 15 250 50 0 empty empty empty 17 7 0 10 -262144
-1 -1;
#X msg 436 739 1;
#X obj 437 783 + 1;
#X floatatom 437 823 5 0 0 0 - - -;
#X obj 298 782 + 1;
#X floatatom 298 822 5 0 0 0 - - -;
#X floatatom 365 824 5 0 0 0 - - -;
#X obj 365 782 * 9;
#X msg 297 738 5;
#X msg 364 738 2;
#X obj 298 906 +;
#X floatatom 297 938 5 0 0 0 - - -;
#X obj 364 866 +;
#X floatatom 362 911 5 0 0 0 - - -;
#X obj 300 679 trigger bang bang bang;
#X obj 461 878 print primero;
#X obj 459 910 print segundo;
#X obj 461 946 print tercero;
#X obj 67 1035 expr (4*(5-2))/4;
#X obj 67 988 bng 15 250 50 0 empty empty empty 17 7 0 10 -262144 -1
-1;
#X floatatom 67 1068 5 0 0 0 - - -;
#X floatatom 257 984 5 0 0 0 - - -;
#X obj 256 1037 expr ($f1*$f2*$f3);
#X floatatom 318 982 5 0 0 0 - - -;
#X floatatom 379 983 5 0 0 0 - - -;
#X floatatom 256 1072 5 0 0 0 - - -;
#X obj 63 1171 expr 17/7;
#X obj 63 1134 bng 15 250 50 0 empty empty empty 17 7 0 10 -262144
-1 -1;
#X floatatom 63 1207 5 0 0 0 - - -;
#X obj 177 1134 bng 15 250 50 0 empty empty empty 17 7 0 10 -262144
-1 -1;
#X floatatom 177 1207 5 0 0 0 - - -;
#X obj 177 1171 expr 17.0/7;
#X text 19 18 Artimética;
#X text 36 1257 Comparaciones;
#X obj 72 1336 ==;
#X obj 132 1339 >=;
#X obj 198 1337 <=;
#X obj 262 1335 >;
#X obj 315 1334 <;
#X obj 370 1336 !=;
#X floatatom 148 1282 5 0 0 0 - - -;
#X floatatom 259 1276 5 0 0 0 - - -;
#X floatatom 72 1382 5 0 0 0 - - -;
#X floatatom 133 1382 5 0 0 0 - - -;
#X floatatom 196 1384 5 0 0 0 - - -;
#X floatatom 260 1380 5 0 0 0 - - -;
#X floatatom 317 1379 5 0 0 0 - - -;
#X floatatom 374 1381 5 0 0 0 - - -;
#X text 37 1432 moses;
#X obj 87 1492 moses;
#X floatatom 71 1459 5 0 0 0 - - -;
#X floatatom 127 1458 5 0 0 0 - - -;
#X floatatom 62 1531 5 0 0 0 - - -;
#X floatatom 128 1533 5 0 0 0 - - -;
#X obj 54 1600 sel 4;
#X floatatom 54 1567 5 0 0 0 - - -;
#X floatatom 94 1643 5 0 0 0 - - -;
#X obj 47 1648 bng 15 250 50 0 empty empty empty 17 7 0 10 -262144
-1 -1;
#X floatatom 62 1689 5 0 0 0 - - -;
#X floatatom 23 1775 5 0 0 0 - - -;
#X floatatom 93 1773 5 0 0 0 - - -;
#X obj 93 1734 mod 5;
#X obj 22 1733 div 5;
#X obj 50 1867 sin;
#X obj 108 1868 cos;
#X obj 160 1869 tan;
#X obj 210 1869 sqrt;
#X obj 268 1868 abs;
#X obj 320 1870 log;
#X floatatom 172 1812 5 0 0 0 - - -;
#X floatatom 51 1911 5 0 0 0 - - -;
#X floatatom 105 1911 5 0 0 0 - - -;
#X floatatom 160 1911 5 0 0 0 - - -;
#X floatatom 211 1911 5 0 0 0 - - -;
#X floatatom 266 1912 5 0 0 0 - - -;
#X floatatom 322 1912 5 0 0 0 - - -;
#X obj -17 2663;
#X obj 50 2007 random 10;
#X floatatom 50 2049 5 0 0 0 - - -;
#X obj 49 1955 bng 15 250 50 0 empty empty empty 17 7 0 10 -262144
-1 -1;
#X obj 180 2080 osc~;
#X obj 180 2133 dac~;
#X obj 180 2109 *~;
#X obj 284 2012 vsl 15 128 0 1 0 0 empty empty empty 0 -9 0 10 -262144
-1 -1 0 1;
#X floatatom 179 2045 5 0 0 0 - - -;
#X obj 178 1970 bng 15 250 50 0 empty empty empty 17 7 0 10 -262144
-1 -1;
#X obj 179 2003 random 2000;
#X obj 398 2093 osc~;
#X obj 398 2146 dac~;
#X obj 398 2122 *~;
#X obj 502 2025 vsl 15 128 0 1 0 0 empty empty empty 0 -9 0 10 -262144
-1 -1 0 1;
#X floatatom 397 2058 5 0 0 0 - - -;
#X obj 397 2016 random 2000;
#X obj 396 1982 metro 500;
#X obj 396 1956 tgl 15 0 empty empty empty 17 7 0 10 -262144 -1 -1
0 1;
#X connect 1 0 7 0;
#X connect 2 0 7 1;
#X connect 7 0 8 0;
#X connect 9 0 13 0;
#X connect 10 0 13 1;
#X connect 13 0 11 0;
#X connect 14 0 17 0;
#X connect 15 0 17 1;
#X connect 17 0 16 0;
#X connect 18 0 21 0;
#X connect 19 0 21 1;
#X connect 21 0 20 0;
#X connect 22 0 24 0;
#X connect 22 0 23 0;
#X connect 23 0 25 0;
#X connect 24 0 26 0;
#X connect 27 0 28 0;
#X connect 28 0 29 0;
#X connect 30 0 31 0;
#X connect 31 0 38 0;
#X connect 32 0 38 1;
#X connect 33 0 32 0;
#X connect 34 0 30 0;
#X connect 35 0 37 0;
#X connect 35 0 34 0;
#X connect 35 0 27 0;
#X connect 37 0 33 0;
#X connect 38 0 39 0;
#X connect 40 0 41 0;
#X connect 41 0 42 0;
#X connect 42 0 52 1;
#X connect 43 0 44 0;
#X connect 44 0 50 0;
#X connect 45 0 52 0;
#X connect 46 0 45 0;
#X connect 47 0 43 0;
#X connect 48 0 49 0;
#X connect 48 0 47 0;
#X connect 48 0 40 0;
#X connect 49 0 46 0;
#X connect 50 0 51 0;
#X connect 52 0 50 1;
#X connect 52 0 53 0;
#X connect 54 0 68 0;
#X connect 55 0 56 0;
#X connect 56 0 57 0;
#X connect 57 0 66 1;
#X connect 58 0 59 0;
#X connect 59 0 64 0;
#X connect 60 0 66 0;
#X connect 61 0 60 0;
#X connect 62 0 58 0;
#X connect 63 0 61 0;
#X connect 64 0 65 0;
#X connect 66 0 64 1;
#X connect 66 0 67 0;
#X connect 68 0 62 0;
#X connect 68 1 63 0;
#X connect 68 2 55 0;
#X connect 69 0 70 0;
#X connect 70 0 75 0;
#X connect 70 1 76 0;
#X connect 71 0 72 0;
#X connect 72 0 77 0;
#X connect 73 0 77 1;
#X connect 73 0 79 0;
#X connect 74 0 73 0;
#X connect 75 0 71 0;
#X connect 76 0 74 0;
#X connect 77 0 78 0;
#X connect 80 0 94 0;
#X connect 81 0 82 0;
#X connect 82 0 83 0;
#X connect 83 0 92 1;
#X connect 83 0 95 0;
#X connect 84 0 85 0;
#X connect 85 0 90 0;
#X connect 85 0 97 0;
#X connect 86 0 92 0;
#X connect 86 0 96 0;
#X connect 87 0 86 0;
#X connect 88 0 84 0;
#X connect 89 0 87 0;
#X connect 90 0 91 0;
#X connect 92 0 90 1;
#X connect 92 0 93 0;
#X connect 94 0 88 0;
#X connect 94 1 89 0;
#X connect 94 2 81 0;
#X connect 98 0 100 0;
#X connect 99 0 98 0;
#X connect 101 0 102 0;
#X connect 102 0 105 0;
#X connect 103 0 102 1;
#X connect 104 0 102 2;
#X connect 106 0 108 0;
#X connect 107 0 106 0;
#X connect 109 0 111 0;
#X connect 111 0 110 0;
#X connect 114 0 122 0;
#X connect 115 0 123 0;
#X connect 116 0 124 0;
#X connect 117 0 125 0;
#X connect 118 0 126 0;
#X connect 119 0 127 0;
#X connect 120 0 114 0;
#X connect 120 0 115 0;
#X connect 120 0 116 0;
#X connect 120 0 117 0;
#X connect 120 0 118 0;
#X connect 120 0 119 0;
#X connect 121 0 114 1;
#X connect 121 0 115 1;
#X connect 121 0 116 1;
#X connect 121 0 117 1;
#X connect 121 0 118 1;
#X connect 121 0 119 1;
#X connect 129 0 132 0;
#X connect 129 1 133 0;
#X connect 130 0 129 0;
#X connect 131 0 129 1;
#X connect 134 0 137 0;
#X connect 134 1 136 0;
#X connect 135 0 134 0;
#X connect 138 0 141 0;
#X connect 138 0 142 0;
#X connect 141 0 140 0;
#X connect 142 0 139 0;
#X connect 143 0 150 0;
#X connect 144 0 151 0;
#X connect 145 0 152 0;
#X connect 146 0 153 0;
#X connect 147 0 154 0;
#X connect 148 0 155 0;
#X connect 149 0 143 0;
#X connect 149 0 144 0;
#X connect 149 0 145 0;
#X connect 149 0 146 0;
#X connect 149 0 147 0;
#X connect 149 0 148 0;
#X connect 157 0 158 0;
#X connect 159 0 157 0;
#X connect 160 0 162 0;
#X connect 162 0 161 0;
#X connect 163 0 162 1;
#X connect 164 0 160 0;
#X connect 165 0 166 0;
#X connect 166 0 164 0;
#X connect 167 0 169 0;
#X connect 169 0 168 0;
#X connect 170 0 169 1;
#X connect 171 0 167 0;
#X connect 172 0 171 0;
#X connect 173 0 172 0;
#X connect 174 0 173 0;
