#N canvas 953 0 958 988 12;
#X obj 207 141 unpackOSC;
#X obj 207 111 udpreceive 7000;
#X obj 207 178 routeOSC /unity/collision;
#X obj 211 639 *~ 1;
#X obj 211 703 +~;
#X obj 310 699 +~;
#X obj 400 703 +~;
#X obj 486 703 +~;
#X obj 570 703 +~;
#X obj 658 704 +~;
#X obj 772 703 +~;
#X obj 876 699 +~;
#X obj 966 756 grapher~;
#X msg 990 484 \; pd dsp 1 \;;
#X msg 989 533 \; pd dsp 0 \;;
#X msg 609 259 1;
#X msg 712 261 0;
#X obj 608 197 trigger b b;
#X obj 571 183 bng 15 250 50 0 empty empty empty 17 7 0 10 -262144
-1 -1;
#X obj 666 305 adsr~ 1 100 1000 50 1000;
#X obj 209 296 mtof;
#X floatatom 212 327 5 0 0 0 - - -;
#X floatatom 208 270 5 0 0 0 - - -;
#X obj 307 372 * 2;
#X floatatom 308 395 5 0 0 0 - - -;
#X obj 307 417 osc~;
#X obj 397 418 osc~;
#X obj 482 416 osc~;
#X obj 560 415 osc~;
#X obj 652 415 osc~;
#X obj 766 419 osc~;
#X obj 869 420 osc~;
#X obj 209 417 osc~;
#X floatatom 394 393 5 0 0 0 - - -;
#X floatatom 481 392 5 0 0 0 - - -;
#X floatatom 559 392 5 0 0 0 - - -;
#X floatatom 651 390 5 0 0 0 - - -;
#X floatatom 765 392 5 0 0 0 - - -;
#X floatatom 870 393 5 0 0 0 - - -;
#X obj 393 370 * 3;
#X obj 480 369 * 4;
#X obj 558 369 * 5;
#X obj 650 367 * 6;
#X obj 764 369 * 7;
#X obj 869 370 * 8;
#X obj 265 384 vsl 15 128 0 1 0 0 empty empty empty 0 -9 0 10 -262144
-1 -1 9800 1;
#X obj 358 376 vsl 15 128 0 1 0 0 empty empty empty 0 -9 0 10 -262144
-1 -1 4100 1;
#X obj 437 378 vsl 15 128 0 1 0 0 empty empty empty 0 -9 0 10 -262144
-1 -1 3800 1;
#X obj 523 375 vsl 15 128 0 1 0 0 empty empty empty 0 -9 0 10 -262144
-1 -1 3700 1;
#X obj 608 373 vsl 15 128 0 1 0 0 empty empty empty 0 -9 0 10 -262144
-1 -1 4100 1;
#X obj 707 374 vsl 15 128 0 1 0 0 empty empty empty 0 -9 0 10 -262144
-1 -1 3300 1;
#X obj 819 376 vsl 15 128 0 1 0 0 empty empty empty 0 -9 0 10 -262144
-1 -1 3600 1;
#X obj 918 379 vsl 15 128 0 1 0 0 empty empty empty 0 -9 0 10 -262144
-1 -1 1800 1;
#X floatatom 265 528 5 0 0 0 - - -;
#X floatatom 359 522 5 0 0 0 - - -;
#X floatatom 439 525 5 0 0 0 - - -;
#X floatatom 524 519 5 0 0 0 - - -;
#X floatatom 609 518 5 0 0 0 - - -;
#X floatatom 707 520 5 0 0 0 - - -;
#X floatatom 819 525 5 0 0 0 - - -;
#X floatatom 914 522 5 0 0 0 - - -;
#X obj 265 556 t f f;
#X obj 266 615 +;
#X floatatom 266 677 5 0 0 0 - - -;
#X obj 360 554 t f f;
#X obj 440 552 t f f;
#X obj 522 551 t f f;
#X obj 609 549 t f f;
#X obj 707 551 t f f;
#X obj 819 554 t f f;
#X obj 915 552 t f f;
#X obj 310 640 *~;
#X obj 400 638 *~;
#X obj 486 634 *~;
#X obj 563 633 *~;
#X obj 655 636 *~;
#X obj 770 635 *~;
#X obj 872 632 *~;
#X obj 360 584 +;
#X obj 441 585 +;
#X obj 522 583 +;
#X obj 610 582 +;
#X obj 707 581 +;
#X obj 820 584 +;
#X obj 916 580 + 0;
#X obj 358 617 t b f;
#X obj 440 616 t b f;
#X obj 522 611 t b f;
#X obj 608 608 t b f;
#X obj 706 608 t b f;
#X obj 817 611 t b f;
#X obj 917 609 t b f;
#X obj 211 743 /~;
#X obj 210 932 dac~;
#X obj 210 827 *~;
#X obj 291 750 hsl 128 15 0 1 0 0 empty empty empty -2 -8 0 10 -262144
-1 -1 11100 1;
#X obj 212 870 *~;
#X obj 713 225 delay 200;
#X connect 0 0 2 0;
#X connect 1 0 0 0;
#X connect 2 0 18 0;
#X connect 3 0 4 0;
#X connect 4 0 92 0;
#X connect 5 0 4 1;
#X connect 6 0 5 1;
#X connect 7 0 6 1;
#X connect 8 0 7 1;
#X connect 9 0 8 1;
#X connect 10 0 9 1;
#X connect 11 0 10 1;
#X connect 15 0 19 0;
#X connect 16 0 19 0;
#X connect 17 0 15 0;
#X connect 17 1 97 0;
#X connect 18 0 17 0;
#X connect 19 0 96 1;
#X connect 20 0 21 0;
#X connect 21 0 23 0;
#X connect 21 0 32 0;
#X connect 21 0 39 0;
#X connect 21 0 40 0;
#X connect 21 0 41 0;
#X connect 21 0 42 0;
#X connect 21 0 43 0;
#X connect 21 0 44 0;
#X connect 22 0 20 0;
#X connect 23 0 24 0;
#X connect 24 0 25 0;
#X connect 25 0 71 0;
#X connect 26 0 72 0;
#X connect 27 0 73 0;
#X connect 28 0 74 0;
#X connect 29 0 75 0;
#X connect 30 0 76 0;
#X connect 31 0 77 0;
#X connect 32 0 3 0;
#X connect 33 0 26 0;
#X connect 34 0 27 0;
#X connect 35 0 28 0;
#X connect 36 0 29 0;
#X connect 37 0 30 0;
#X connect 38 0 31 0;
#X connect 39 0 33 0;
#X connect 40 0 34 0;
#X connect 41 0 35 0;
#X connect 42 0 36 0;
#X connect 43 0 37 0;
#X connect 44 0 38 0;
#X connect 45 0 53 0;
#X connect 46 0 54 0;
#X connect 47 0 55 0;
#X connect 48 0 56 0;
#X connect 49 0 57 0;
#X connect 50 0 58 0;
#X connect 51 0 59 0;
#X connect 52 0 60 0;
#X connect 53 0 61 0;
#X connect 54 0 64 0;
#X connect 55 0 65 0;
#X connect 56 0 66 0;
#X connect 57 0 67 0;
#X connect 58 0 68 0;
#X connect 59 0 69 0;
#X connect 60 0 70 0;
#X connect 61 0 62 0;
#X connect 61 1 3 1;
#X connect 62 0 63 0;
#X connect 63 0 92 1;
#X connect 64 0 78 0;
#X connect 64 1 71 1;
#X connect 65 0 79 0;
#X connect 65 1 72 1;
#X connect 66 0 80 0;
#X connect 66 1 73 1;
#X connect 67 0 81 0;
#X connect 67 1 74 1;
#X connect 68 0 82 0;
#X connect 68 1 75 1;
#X connect 69 0 83 0;
#X connect 69 1 76 1;
#X connect 70 0 84 0;
#X connect 70 1 77 1;
#X connect 71 0 5 0;
#X connect 72 0 6 0;
#X connect 73 0 7 0;
#X connect 74 0 8 0;
#X connect 75 0 9 0;
#X connect 76 0 10 0;
#X connect 77 0 11 0;
#X connect 78 0 85 0;
#X connect 79 0 86 0;
#X connect 80 0 87 0;
#X connect 81 0 88 0;
#X connect 82 0 89 0;
#X connect 83 0 90 0;
#X connect 84 0 91 0;
#X connect 85 0 62 0;
#X connect 85 1 62 1;
#X connect 86 0 78 0;
#X connect 86 1 78 1;
#X connect 87 0 79 0;
#X connect 87 1 79 1;
#X connect 88 0 80 0;
#X connect 88 1 80 1;
#X connect 89 0 81 0;
#X connect 89 1 81 1;
#X connect 90 0 82 0;
#X connect 90 1 82 1;
#X connect 91 0 83 0;
#X connect 91 1 83 1;
#X connect 92 0 94 0;
#X connect 94 0 96 0;
#X connect 95 0 94 1;
#X connect 96 0 93 0;
#X connect 96 0 93 1;
#X connect 97 0 16 0;
