#N canvas 1619 169 1196 870 12;
#X obj 274 117 lfo~;
#X obj 167 258 *~;
#X obj 170 384 dac~;
#X obj 164 152 noise~;
#X obj 168 293 lop~ 500;
#X obj 275 52 hsl 128 15 0 1 0 0 empty empty empty -2 -8 0 10 -262144
-1 -1 1700 1;
#X obj 303 272 adsr~ 1 300 1000 30 500;
#X msg 286 214 1;
#X msg 344 213 0;
#X obj 169 342 *~;
#X obj 322 378 grapher~;
#X connect 0 0 1 1;
#X connect 1 0 4 0;
#X connect 3 0 1 0;
#X connect 4 0 9 0;
#X connect 5 0 0 0;
#X connect 6 0 9 1;
#X connect 7 0 6 0;
#X connect 8 0 6 0;
#X connect 9 0 2 0;
#X connect 9 0 2 1;
#X connect 9 0 10 0;
