#N canvas -10 0 1918 974 12;
#X obj 38 211 grapher~;
#X obj 37 111 osc~ 100;
#X obj 248 214 grapher~;
#X obj 92 518 dac~;
#X obj 92 472 *~;
#X obj 235 384 vsl 15 128 0 1 0 0 empty empty empty 0 -9 0 10 -262144
-1 -1 0 1;
#X obj 253 83 phasor~ 440;
#X obj 36 432 *~;
#X obj 183 435 *~;
#X msg 65 404 1;
#X msg 106 405 0;
#X msg 264 406 1;
#X msg 305 407 0;
#X floatatom 181 43 5 0 0 0 - - -;
#X obj 142 16 hsl 128 15 200 1000 0 0 empty empty empty -2 -8 0 10
-262144 -1 -1 12700 1;
#X obj 466 66 phasor~;
#X obj 551 67 phasor~;
#X obj 503 120 +~;
#X obj 520 18 * -1;
#X obj 626 2 bng 15 250 50 0 empty empty empty 17 7 0 10 -262144 -1
-1;
#X msg 576 37 0;
#X msg 636 35 0.5;
#X obj 507 209 grapher~;
#X obj 505 166 -~ 1;
#X obj 384 433 *~;
#X msg 413 405 1;
#X msg 454 406 0;
#X obj 690 102 phasor~;
#X obj 775 103 phasor~;
#X obj 695 130 *~ 2;
#X obj 778 129 *~ 2;
#X obj 695 160 -~ 1;
#X obj 778 161 -~ 1;
#X obj 691 195 clip~ 0 1;
#X obj 780 199 clip~ 0 1;
#X obj 721 231 +~;
#X obj 705 289 grapher~;
#X msg 705 16 0;
#X obj 500 425 *~;
#X msg 529 397 1;
#X msg 570 398 0;
#X obj 254 113 -~ 0.5;
#X obj 253 159 *~ 2;
#X connect 1 0 0 0;
#X connect 1 0 7 0;
#X connect 4 0 3 0;
#X connect 5 0 4 1;
#X connect 6 0 41 0;
#X connect 7 0 4 0;
#X connect 8 0 4 0;
#X connect 9 0 7 1;
#X connect 10 0 7 1;
#X connect 11 0 8 1;
#X connect 12 0 8 1;
#X connect 13 0 1 0;
#X connect 13 0 6 0;
#X connect 13 0 18 0;
#X connect 13 0 15 0;
#X connect 13 0 27 0;
#X connect 14 0 13 0;
#X connect 15 0 17 0;
#X connect 16 0 17 1;
#X connect 17 0 23 0;
#X connect 18 0 16 0;
#X connect 18 0 28 0;
#X connect 19 0 20 0;
#X connect 19 0 21 0;
#X connect 20 0 15 1;
#X connect 21 0 16 1;
#X connect 23 0 22 0;
#X connect 23 0 24 0;
#X connect 24 0 4 0;
#X connect 25 0 24 1;
#X connect 26 0 24 1;
#X connect 27 0 29 0;
#X connect 28 0 30 0;
#X connect 29 0 31 0;
#X connect 30 0 32 0;
#X connect 31 0 33 0;
#X connect 32 0 34 0;
#X connect 33 0 35 0;
#X connect 34 0 35 1;
#X connect 35 0 36 0;
#X connect 35 0 38 0;
#X connect 37 0 27 1;
#X connect 37 0 28 1;
#X connect 38 0 4 0;
#X connect 39 0 38 1;
#X connect 40 0 38 1;
#X connect 41 0 42 0;
#X connect 42 0 2 0;
#X connect 42 0 8 0;
