#N canvas 1966 807 450 300 12;
#X obj 68 27 bng 15 250 50 0 empty empty empty 17 7 0 10 -262144 -1
-1;
#X floatatom 65 129 5 0 0 0 - - -;
#X floatatom 133 26 5 0 0 0 - - -;
#X obj 70 77 float 56.9;
#X obj 304 72 trigger bang bang;
#X obj 466 72 t bang bang;
#X obj 265 218 f 100;
#X floatatom 267 306 5 0 0 0 - - -;
#X obj 266 355 osc~;
#X obj 268 410 dac~;
#X obj 268 386 *~;
#X obj 363 307 vsl 15 128 0 1 0 0 empty empty empty 0 -9 0 10 -262144
-1 -1 3300 1;
#X obj 75 192 bng 15 250 50 0 empty empty empty 17 7 0 10 -262144 -1
-1;
#X obj 76 238 f 100;
#X obj 79 280 + 1;
#X floatatom 78 326 5 0 0 0 - - -;
#X obj 264 174 metro 100;
#X obj 265 119 tgl 15 0 empty empty empty 17 7 0 10 -262144 -1 -1 0
1;
#X msg 360 227 0;
#X obj 268 260 + 100;
#X obj 535 224 f 100;
#X floatatom 538 299 5 0 0 0 - - -;
#X obj 538 396 osc~;
#X obj 540 451 dac~;
#X obj 540 427 *~;
#X obj 635 348 vsl 15 128 0 1 0 0 empty empty empty 0 -9 0 10 -262144
-1 -1 0 1;
#X obj 534 180 metro 100;
#X obj 535 125 tgl 15 0 empty empty empty 17 7 0 10 -262144 -1 -1 0
1;
#X msg 630 233 0;
#X obj 538 266 + 100;
#X obj 539 339 mod 2000;
#X floatatom 539 370 5 0 0 0 - - -;
#X obj 741 221 f 100;
#X floatatom 744 296 5 0 0 0 - - -;
#X obj 744 393 osc~;
#X obj 746 448 dac~;
#X obj 746 424 *~;
#X obj 841 345 vsl 15 128 0 1 0 0 empty empty empty 0 -9 0 10 -262144
-1 -1 0 1;
#X obj 740 177 metro 100;
#X obj 741 122 tgl 15 0 empty empty empty 17 7 0 10 -262144 -1 -1 0
1;
#X msg 836 230 0;
#X obj 745 336 mod 2000;
#X floatatom 745 367 5 0 0 0 - - -;
#X obj 744 263 + 200;
#X obj 72 572 pack s f;
#X text -117 1614 fin del documento;
#X text 66 491 Listas;
#X msg 171 509 89;
#X obj 71 614 print;
#X msg 58 513 El_numero;
#X obj 281 570 pack s f;
#X msg 377 513 89;
#X msg 267 511 El_numero;
#X obj 281 613 unpack s f;
#X obj 250 658 print;
#X obj 349 657 print;
#X obj 72 742 route;
#X text 68 794 Fibonacci;
#X obj 115 827 bng 15 250 50 0 empty empty empty 17 7 0 10 -262144
-1 -1;
#X obj 161 946 +;
#X floatatom 160 996 5 0 0 0 - - -;
#X obj 164 882 f 0;
#X obj 247 883 f 1;
#X floatatom 263 959 5 0 0 0 - - -;
#X msg 185 821 0;
#X msg 258 819 0;
#X msg 323 841 1;
#X floatatom 75 938 5 0 0 0 - - -;
#X obj 496 862 f 0;
#X obj 565 861 f 1;
#X obj 492 903 pack f f;
#X obj 492 972 +;
#X obj 493 937 unpack;
#X floatatom 492 1006 5 0 0 0 - - -;
#X floatatom 422 900 5 0 0 0 - - -;
#X floatatom 606 903 5 0 0 0 - - -;
#X msg 522 761 0;
#X msg 565 761 1;
#X obj 520 719 bng 15 250 50 0 empty empty empty 17 7 0 10 -262144
-1 -1;
#X obj 385 707 tgl 15 0 empty empty empty 17 7 0 10 -262144 -1 -1 0
1;
#X obj 494 1057 osc~;
#X obj 496 1112 dac~;
#X obj 496 1088 *~;
#X obj 591 1009 vsl 15 128 0 1 0 0 empty empty empty 0 -9 0 10 -262144
-1 -1 0 1;
#X obj 389 802 trigger b b;
#X obj 384 762 metro 1000;
#X connect 0 0 3 0;
#X connect 2 0 3 1;
#X connect 3 0 1 0;
#X connect 6 0 19 0;
#X connect 7 0 8 0;
#X connect 8 0 10 0;
#X connect 10 0 9 0;
#X connect 11 0 10 1;
#X connect 12 0 13 0;
#X connect 13 0 14 0;
#X connect 14 0 13 1;
#X connect 14 0 15 0;
#X connect 16 0 6 0;
#X connect 17 0 16 0;
#X connect 18 0 6 1;
#X connect 19 0 6 1;
#X connect 19 0 7 0;
#X connect 20 0 29 0;
#X connect 21 0 30 0;
#X connect 22 0 24 0;
#X connect 24 0 23 0;
#X connect 25 0 24 1;
#X connect 26 0 20 0;
#X connect 27 0 26 0;
#X connect 28 0 20 1;
#X connect 29 0 20 1;
#X connect 29 0 21 0;
#X connect 30 0 31 0;
#X connect 31 0 22 0;
#X connect 32 0 43 0;
#X connect 33 0 41 0;
#X connect 34 0 36 0;
#X connect 36 0 35 0;
#X connect 37 0 36 1;
#X connect 38 0 32 0;
#X connect 39 0 38 0;
#X connect 40 0 32 1;
#X connect 41 0 42 0;
#X connect 42 0 34 0;
#X connect 43 0 32 1;
#X connect 43 0 33 0;
#X connect 44 0 48 0;
#X connect 47 0 44 1;
#X connect 49 0 44 0;
#X connect 50 0 53 0;
#X connect 51 0 50 1;
#X connect 52 0 50 0;
#X connect 53 0 54 0;
#X connect 53 1 55 0;
#X connect 58 0 61 0;
#X connect 58 0 62 0;
#X connect 59 0 60 0;
#X connect 59 0 62 1;
#X connect 61 0 59 0;
#X connect 61 0 67 0;
#X connect 62 0 59 1;
#X connect 62 0 63 0;
#X connect 62 0 61 1;
#X connect 64 0 61 1;
#X connect 65 0 62 1;
#X connect 66 0 62 1;
#X connect 68 0 74 0;
#X connect 68 0 70 1;
#X connect 69 0 68 1;
#X connect 69 0 75 0;
#X connect 69 0 70 0;
#X connect 70 0 72 0;
#X connect 71 0 73 0;
#X connect 71 0 69 1;
#X connect 72 0 71 0;
#X connect 72 1 71 1;
#X connect 73 0 80 0;
#X connect 76 0 68 1;
#X connect 76 0 70 1;
#X connect 77 0 69 1;
#X connect 78 0 77 0;
#X connect 78 0 76 0;
#X connect 79 0 85 0;
#X connect 80 0 82 0;
#X connect 82 0 81 0;
#X connect 83 0 82 1;
#X connect 84 0 68 0;
#X connect 84 1 69 0;
#X connect 85 0 84 0;
