#N canvas -10 0 1918 974 12;
#X obj 96 32 keyname;
#X floatatom 92 68 5 0 0 0 - - -;
#X obj 256 26 keyup;
#X floatatom 258 68 5 0 0 0 - - -;
#X symbolatom 375 68 10 0 0 0 - - -;
#X obj 332 28 key;
#X floatatom 333 69 5 0 0 0 - - -;
#X floatatom 651 116 5 0 0 0 - - -;
#X obj 332 147 bng 15 250 50 0 empty empty empty 17 7 0 10 -262144
-1 -1;
#X obj 359 146 bng 15 250 50 0 empty empty empty 17 7 0 10 -262144
-1 -1;
#X msg 332 187 60;
#X msg 373 187 61;
#X obj 332 246 mtof;
#X obj 332 295 osc~;
#X obj 443 297 hsl 128 15 0 1 0 0 empty empty empty -2 -8 0 10 -262144
-1 -1 0 1;
#X obj 139 245 line~;
#X msg 163 182 0 1000;
#X obj 111 136 sel 1 0;
#X msg 412 187 62;
#X msg 451 187 63;
#X msg 495 188 64;
#X msg 536 188 65;
#X msg 575 188 66;
#X msg 614 188 67;
#X obj 331 105 sel 122 120 99 118 98 110 109 44;
#X obj 396 148 bng 15 250 50 0 empty empty empty 17 7 0 10 -262144
-1 -1;
#X obj 439 148 bng 15 250 50 0 empty empty empty 17 7 0 10 -262144
-1 -1;
#X obj 472 149 bng 15 250 50 0 empty empty empty 17 7 0 10 -262144
-1 -1;
#X obj 508 150 bng 15 250 50 0 empty empty empty 17 7 0 10 -262144
-1 -1;
#X obj 538 149 bng 15 250 50 0 empty empty empty 17 7 0 10 -262144
-1 -1;
#X obj 574 150 bng 15 250 50 0 empty empty empty 17 7 0 10 -262144
-1 -1;
#X obj 155 699 *~ 1;
#X obj 155 763 +~;
#X obj 229 757 +~;
#X obj 308 760 +~;
#X obj 394 760 +~;
#X obj 478 760 +~;
#X obj 558 760 +~;
#X obj 646 759 +~;
#X obj 729 753 +~;
#X floatatom 156 387 5 0 0 0 - - -;
#X obj 226 430 * 2;
#X floatatom 227 453 5 0 0 0 - - -;
#X obj 226 475 osc~;
#X obj 305 475 osc~;
#X obj 390 473 osc~;
#X obj 468 472 osc~;
#X obj 552 471 osc~;
#X obj 640 475 osc~;
#X obj 722 474 osc~;
#X obj 153 477 osc~;
#X floatatom 302 450 5 0 0 0 - - -;
#X floatatom 389 449 5 0 0 0 - - -;
#X floatatom 467 449 5 0 0 0 - - -;
#X floatatom 551 446 5 0 0 0 - - -;
#X floatatom 639 448 5 0 0 0 - - -;
#X floatatom 723 447 5 0 0 0 - - -;
#X obj 301 427 * 3;
#X obj 388 426 * 4;
#X obj 466 426 * 5;
#X obj 550 423 * 6;
#X obj 638 425 * 7;
#X obj 722 424 * 8;
#X obj 191 442 vsl 15 128 0 1 0 0 empty empty empty 0 -9 0 10 -262144
-1 -1 23100 1;
#X obj 267 434 vsl 15 128 0 1 0 0 empty empty empty 0 -9 0 10 -262144
-1 -1 7900 1;
#X obj 345 435 vsl 15 128 0 1 0 0 empty empty empty 0 -9 0 10 -262144
-1 -1 4400 1;
#X obj 431 432 vsl 15 128 0 1 0 0 empty empty empty 0 -9 0 10 -262144
-1 -1 3500 1;
#X obj 508 429 vsl 15 128 0 1 0 0 empty empty empty 0 -9 0 10 -262144
-1 -1 1700 1;
#X obj 593 430 vsl 15 128 0 1 0 0 empty empty empty 0 -9 0 10 -262144
-1 -1 2000 1;
#X obj 678 430 vsl 15 128 0 1 0 0 empty empty empty 0 -9 0 10 -262144
-1 -1 1500 1;
#X obj 771 433 vsl 15 128 0 1 0 0 empty empty empty 0 -9 0 10 -262144
-1 -1 600 1;
#X floatatom 184 586 5 0 0 0 - - -;
#X floatatom 267 579 5 0 0 0 - - -;
#X floatatom 347 582 5 0 0 0 - - -;
#X floatatom 432 576 5 0 0 0 - - -;
#X floatatom 509 574 5 0 0 0 - - -;
#X floatatom 593 576 5 0 0 0 - - -;
#X floatatom 678 579 5 0 0 0 - - -;
#X floatatom 767 576 5 0 0 0 - - -;
#X obj 184 614 t f f;
#X obj 192 673 +;
#X floatatom 185 735 5 0 0 0 - - -;
#X obj 268 611 t f f;
#X obj 348 609 t f f;
#X obj 430 608 t f f;
#X obj 509 605 t f f;
#X obj 593 607 t f f;
#X obj 678 608 t f f;
#X obj 768 606 t f f;
#X obj 229 698 *~;
#X obj 308 695 *~;
#X obj 394 691 *~;
#X obj 471 690 *~;
#X obj 555 692 *~;
#X obj 644 691 *~;
#X obj 725 686 *~;
#X obj 268 641 +;
#X obj 349 642 +;
#X obj 430 640 +;
#X obj 510 638 +;
#X obj 593 637 +;
#X obj 679 638 +;
#X obj 769 634 + 0;
#X obj 266 674 t b f;
#X obj 348 673 t b f;
#X obj 430 668 t b f;
#X obj 508 664 t b f;
#X obj 592 664 t b f;
#X obj 676 665 t b f;
#X obj 770 663 t b f;
#X obj 155 803 /~;
#X obj 52 720 dac~;
#X obj 51 678 *~;
#X msg 90 182 1 1000;
#X connect 0 0 1 0;
#X connect 0 1 4 0;
#X connect 1 0 17 0;
#X connect 2 0 3 0;
#X connect 5 0 6 0;
#X connect 6 0 24 0;
#X connect 8 0 10 0;
#X connect 9 0 11 0;
#X connect 10 0 12 0;
#X connect 11 0 12 0;
#X connect 12 0 40 0;
#X connect 15 0 112 1;
#X connect 16 0 15 0;
#X connect 17 0 113 0;
#X connect 17 1 16 0;
#X connect 18 0 12 0;
#X connect 19 0 12 0;
#X connect 20 0 12 0;
#X connect 21 0 12 0;
#X connect 22 0 12 0;
#X connect 23 0 12 0;
#X connect 24 0 8 0;
#X connect 24 1 9 0;
#X connect 24 2 25 0;
#X connect 24 3 26 0;
#X connect 24 4 27 0;
#X connect 24 5 28 0;
#X connect 24 6 29 0;
#X connect 24 7 30 0;
#X connect 24 8 7 0;
#X connect 25 0 18 0;
#X connect 26 0 19 0;
#X connect 27 0 20 0;
#X connect 28 0 21 0;
#X connect 29 0 22 0;
#X connect 30 0 23 0;
#X connect 31 0 32 0;
#X connect 32 0 110 0;
#X connect 33 0 32 1;
#X connect 34 0 33 1;
#X connect 35 0 34 1;
#X connect 36 0 35 1;
#X connect 37 0 36 1;
#X connect 38 0 37 1;
#X connect 39 0 38 1;
#X connect 40 0 41 0;
#X connect 40 0 50 0;
#X connect 40 0 57 0;
#X connect 40 0 58 0;
#X connect 40 0 59 0;
#X connect 40 0 60 0;
#X connect 40 0 61 0;
#X connect 40 0 62 0;
#X connect 41 0 42 0;
#X connect 42 0 43 0;
#X connect 43 0 89 0;
#X connect 44 0 90 0;
#X connect 45 0 91 0;
#X connect 46 0 92 0;
#X connect 47 0 93 0;
#X connect 48 0 94 0;
#X connect 49 0 95 0;
#X connect 50 0 31 0;
#X connect 51 0 44 0;
#X connect 52 0 45 0;
#X connect 53 0 46 0;
#X connect 54 0 47 0;
#X connect 55 0 48 0;
#X connect 56 0 49 0;
#X connect 57 0 51 0;
#X connect 58 0 52 0;
#X connect 59 0 53 0;
#X connect 60 0 54 0;
#X connect 61 0 55 0;
#X connect 62 0 56 0;
#X connect 63 0 71 0;
#X connect 64 0 72 0;
#X connect 65 0 73 0;
#X connect 66 0 74 0;
#X connect 67 0 75 0;
#X connect 68 0 76 0;
#X connect 69 0 77 0;
#X connect 70 0 78 0;
#X connect 71 0 79 0;
#X connect 72 0 82 0;
#X connect 73 0 83 0;
#X connect 74 0 84 0;
#X connect 75 0 85 0;
#X connect 76 0 86 0;
#X connect 77 0 87 0;
#X connect 78 0 88 0;
#X connect 79 0 80 0;
#X connect 79 1 31 1;
#X connect 80 0 81 0;
#X connect 81 0 110 1;
#X connect 82 0 96 0;
#X connect 82 1 89 1;
#X connect 83 0 97 0;
#X connect 83 1 90 1;
#X connect 84 0 98 0;
#X connect 84 1 91 1;
#X connect 85 0 99 0;
#X connect 85 1 92 1;
#X connect 86 0 100 0;
#X connect 86 1 93 1;
#X connect 87 0 101 0;
#X connect 87 1 94 1;
#X connect 88 0 102 0;
#X connect 88 1 95 1;
#X connect 89 0 33 0;
#X connect 90 0 34 0;
#X connect 91 0 35 0;
#X connect 92 0 36 0;
#X connect 93 0 37 0;
#X connect 94 0 38 0;
#X connect 95 0 39 0;
#X connect 96 0 103 0;
#X connect 97 0 104 0;
#X connect 98 0 105 0;
#X connect 99 0 106 0;
#X connect 100 0 107 0;
#X connect 101 0 108 0;
#X connect 102 0 109 0;
#X connect 103 0 80 0;
#X connect 103 1 80 1;
#X connect 104 0 96 0;
#X connect 104 1 96 1;
#X connect 105 0 97 0;
#X connect 105 1 97 1;
#X connect 106 0 98 0;
#X connect 106 1 98 1;
#X connect 107 0 99 0;
#X connect 107 1 99 1;
#X connect 108 0 100 0;
#X connect 108 1 100 1;
#X connect 109 0 101 0;
#X connect 109 1 101 1;
#X connect 110 0 112 0;
#X connect 112 0 111 0;
#X connect 112 0 111 1;
#X connect 113 0 15 0;
