#N canvas -10 0 1918 974 12;
#X obj 172 365 dac~;
#X obj 502 115 delwrite~ retardo 100;
#X obj 500 155 delread~ retardo 100;
#X obj 257 185 grapher~;
#X obj 500 369 grapher~;
#X obj 503 223 delwrite~ retardo 100;
#X obj 501 263 delread~ retardo 100;
#X floatatom 239 67 5 0 0 0 - - -;
#X obj 86 6 bng 15 250 50 0 empty empty empty 17 7 0 10 -262144 -1
-1;
#X obj 94 58 tabplay~ guitar;
#X msg 428 35 read -resize guitar.wav guitar;
#X obj 433 76 soundfiler;
#N canvas 0 50 450 250 (subpatch) 0;
#X array guitar 44100 float 2;
#X coords 0 1 44100 -1 200 140 1;
#X restore 712 50 graph;
#X obj 186 124 *~ 1;
#X obj 101 237 clip~ -0.7 0.7;
#X connect 2 0 5 0;
#X connect 7 0 13 1;
#X connect 8 0 9 0;
#X connect 9 0 13 0;
#X connect 10 0 11 0;
#X connect 13 0 3 0;
#X connect 13 0 14 0;
#X connect 14 0 4 0;
#X connect 14 0 0 0;
