#N canvas 2431 405 1070 603 12;
#X obj 111 121 osc~;
#X obj 112 233 *~;
#X obj 109 264 dac~;
#X msg 16 9 60, f 4;
#X obj 109 90 mtof;
#X msg 164 156 1;
#X msg 230 154 0;
#X obj 252 234 tgl 15 0 empty empty empty 17 7 0 10 -262144 -1 -1 1
1;
#X msg 83 8 58, f 4;
#X obj 113 195 *~;
#X obj 110 50 trigger float bang bang;
#X obj 229 115 delay 1000;
#X msg 156 8 56, f 4;
#X obj 114 155 /~ 2;
#X connect 0 0 13 0;
#X connect 1 0 2 0;
#X connect 1 0 2 1;
#X connect 3 0 10 0;
#X connect 4 0 0 0;
#X connect 5 0 9 1;
#X connect 6 0 9 1;
#X connect 7 0 1 1;
#X connect 8 0 10 0;
#X connect 9 0 1 0;
#X connect 10 0 4 0;
#X connect 10 1 5 0;
#X connect 10 2 11 0;
#X connect 11 0 6 0;
#X connect 12 0 10 0;
#X connect 13 0 9 0;
