#N canvas 2177 349 1070 603 12;
#X obj 108 74 osc~;
#X obj 110 126 *~;
#X obj 110 179 dac~;
#X msg 107 4 60, f 4;
#X obj 107 40 mtof;
#X msg 176 85 1;
#X msg 226 85 0;
#X obj 177 56 tgl 15 0 empty empty empty 17 7 0 10 -262144 -1 -1 0
1;
#X msg 152 3 58, f 4;
#X connect 0 0 1 0;
#X connect 1 0 2 0;
#X connect 1 0 2 1;
#X connect 3 0 4 0;
#X connect 4 0 0 0;
#X connect 7 0 1 1;
#X connect 8 0 4 0;
