#N canvas 562 232 856 434 12;
#X obj 121 18 osc~ 440;
#X obj 123 165 dac~;
#X obj 123 118 *~;
#X obj 183 48 hsl 128 15 0 2 0 0 empty empty empty -2 -8 0 10 -262144
-1 -1 1700 1;
#X floatatom 179 79 5 0 0 0 - - -;
#X connect 0 0 2 0;
#X connect 2 0 1 0;
#X connect 3 0 4 0;
#X connect 4 0 2 1;
