#N canvas 145 297 1333 867 12;
#X obj 142 49 osc~ 10;
#X obj 147 161 osc~ 440;
#X obj 149 257 dac~;
#X obj 146 125 +~ 440;
#X obj 144 89 *~ 50;
#X obj 147 194 *~ 0.5;
#X obj 268 69 vsl 15 128 10 100 0 0 empty empty empty 0 -9 0 10 -262144
-1 -1 0 1;
#X connect 0 0 4 0;
#X connect 1 0 5 0;
#X connect 3 0 1 0;
#X connect 4 0 3 0;
#X connect 6 0 4 1;
